<mxfile host="app.diagrams.net" modified="2023-07-02T19:04:01.258Z" agent="Mozilla/5.0 (Windows NT 10.0; Win64; x64) AppleWebKit/537.36 (KHTML, like Gecko) Chrome/114.0.0.0 Safari/537.36" version="21.5.2" etag="0vRJK8EZfyp1Irndqwr1" type="github">
  <diagram name="Page-1" id="sreF8xzgZHM0QWT5FnM1">
    <mxGraphModel>
      <root>
        <mxCell id="0" />
        <mxCell id="1" parent="0" />
      </root>
    </mxGraphModel>
  </diagram>
</mxfile>
